<?xml version="1.0" encoding="utf-8"?>
<!-- Generator: Adobe Illustrator 16.0.4, SVG Export Plug-In . SVG Version: 6.00 Build 0)  -->
<!DOCTYPE svg PUBLIC "-//W3C//DTD SVG 1.1//EN" "http://www.w3.org/Graphics/SVG/1.1/DTD/svg11.dtd">
<svg version="1.1" id="Ebene_1" xmlns="http://www.w3.org/2000/svg" xmlns:xlink="http://www.w3.org/1999/xlink" x="0px" y="0px"
	 width="212.347px" height="99.427px" viewBox="0 0 212.347 99.427" enable-background="new 0 0 212.347 99.427"
	 xml:space="preserve">
<g>
	<g>
		<path fill="#E40037" d="M106.175,60.368c-16.644,0-30.185-13.541-30.185-30.184C75.99,13.541,89.531,0,106.175,0
			c16.642,0,30.183,13.541,30.183,30.184C136.358,46.827,122.817,60.368,106.175,60.368z M106.175,15.212
			c-8.256,0-14.973,6.716-14.973,14.972s6.716,14.971,14.973,14.971c8.255,0,14.971-6.716,14.971-14.971
			S114.43,15.212,106.175,15.212z"/>
	</g>
	<g>
		<g>
			<path fill="#1A1A18" d="M0,73.272h15.091v1.368H1.558v13.838h12.126v1.368H1.558v7.907h14.065v1.368H0V73.272z"/>
			<path fill="#1A1A18" d="M23.529,77.986c-0.495-0.646-1.178-1.71-1.178-1.71s0.114,1.179,0.114,1.938v20.907H21.02V72.969h0.456
				l16.537,21.44c0.495,0.646,1.18,1.71,1.18,1.71s-0.114-1.178-0.114-1.938V73.272h1.444v26.154h-0.456L23.529,77.986z"/>
			<path fill="#1A1A18" d="M45.083,86.197c0-7.868,5.967-13.229,13.343-13.229c3.499,0,6.729,1.027,8.819,3.232l-1.026,1.063
				c-1.863-1.938-4.523-2.89-7.793-2.89c-6.729,0-11.746,5.056-11.746,11.822s5.017,11.823,11.709,11.823
				c4.409,0,7.106-1.445,8.818-3.041v-6.007h-8.325v-1.369h9.846v7.983c-2.09,2.129-5.398,3.84-10.339,3.84
				C51.013,99.427,45.083,94.066,45.083,86.197z"/>
			<path fill="#1A1A18" d="M75.301,73.272h1.56v25.85h-1.56V73.272z"/>
			<path fill="#1A1A18" d="M86.21,77.986c-0.495-0.646-1.178-1.71-1.178-1.71s0.114,1.179,0.114,1.938v20.907h-1.445V72.969h0.458
				l16.535,21.44c0.495,0.646,1.178,1.71,1.178,1.71s-0.114-1.178-0.114-1.938V73.272h1.445v26.154h-0.456L86.21,77.986z"/>
		</g>
		<path fill="#1A1A18" d="M109.258,73.273h7.11c8.286,0,13.799,5.171,13.799,12.925c0,7.755-5.474,12.925-13.799,12.925h-7.11
			V73.273z M116.102,95.588c6.728,0,9.883-3.878,9.883-9.39s-3.155-9.389-9.883-9.389h-2.815v18.778H116.102z"/>
		<path fill="#1A1A18" d="M134.818,73.273h16.422v3.536h-12.394v10.034h10.987v3.46h-10.987v5.284h12.925v3.535h-16.954V73.273z"/>
		<path fill="#1A1A18" d="M162.958,84.032c-1.025-1.104-2.432-2.889-2.432-2.889s0.266,2.127,0.266,3.724v14.256h-3.726V73.007
			h0.532l14.256,15.32c0.988,1.064,2.396,2.89,2.396,2.89s-0.266-2.28-0.266-3.726V73.273h3.726v26.115h-0.496L162.958,84.032z"/>
		<path fill="#1A1A18" d="M184.158,73.273h3.99v25.85h-3.99V73.273z"/>
		<path fill="#1A1A18" d="M192.998,98.706l13.077-21.896h-10.985v-3.536h17.257v0.418l-13.001,21.896h12.735v3.535h-19.083V98.706z"
			/>
	</g>
</g>
</svg>
